<svg xmlns="http://www.w3.org/2000/svg" viewBox="0 0 362 127.41"><title>bomdia-marca-vetor</title><g id="BD_VETOR"><path d="M138.23,53.29H253.08l-.06,0,15.49,0,0,.09H309.4l-.1-.08,13.18,0-8.36-8.37H299.88l-6,6.06H276.41l-6.06-6.06H256.11l-6.22,6.27-.29-.19H135.05Q136.67,52.06,138.23,53.29Z" transform="translate(-10.83 -43.69)" style="fill:#fff"/><path d="M301.15,162.33h0l-.08-.09H285.65l-6,6H110.57q-2.79,1.33-5.65,2.41H284.05l-.11-.09h25.48Z" transform="translate(-10.83 -43.69)" style="fill:#fff"/><path d="M207.75,61.6H147c.69.78,1.36,1.58,2,2.38H338.93l-8.31-8.31h-117Z" transform="translate(-10.83 -43.69)" style="fill:#fff"/><path d="M272.12,151.81l-5.74,5.79H126.55c-.91.82-1.84,1.61-2.8,2.37H318l-8.11-8.17Z" transform="translate(-10.83 -43.69)" style="fill:#fff"/><path d="M196.47,82.92H145c.3.79.58,1.59.85,2.39h227l-8.2-8.19H202.27Z" transform="translate(-10.83 -43.69)" style="fill:#fff"/><path d="M209.77,72.26H154.72c.46.78.9,1.57,1.33,2.37H355.84l-8.2-8.19h-132Z" transform="translate(-10.83 -43.69)" style="fill:#fff"/><path d="M299.83,141.09H279.94l-5.75,5.8h-138c-.58.8-1.19,1.6-1.81,2.38H322l-8.19-8.18Z" transform="translate(-10.83 -43.69)" style="fill:#fff"/><path d="M207.73,87.71,202,93.52H148c.15.79.29,1.58.42,2.38h220.2l-8.19-8.18Z" transform="translate(-10.83 -43.69)" style="fill:#fff"/><path d="M330,109H259.86l-6,6H148.79q-.15,1.18-.33,2.37H340.29l17,0L349,109Z" transform="translate(-10.83 -43.69)" style="fill:#fff"/><path d="M306.82,98.37H244.75l-5.82,5.88h-89.7c0,.79.05,1.58.05,2.38H358.13l-8.26-8.26Z" transform="translate(-10.83 -43.69)" style="fill:#fff"/><path d="M272.1,130.51l-5.78,5.83H142.55c-.39.8-.79,1.59-1.2,2.38h204l-8.2-8.21Z" transform="translate(-10.83 -43.69)" style="fill:#fff"/><path d="M340.62,119.6H287.44l-17.53,0L264,125.57H146.65c-.23.79-.47,1.59-.73,2.38h138.7l-.08-.06h66.57l-8.3-8.29Z" transform="translate(-10.83 -43.69)" style="fill:#fff"/><path d="M97.68,107.59a25.2,25.2,0,0,0-5-5.35,40.15,40.15,0,0,0-4.41-3.37A39.25,39.25,0,0,0,91.6,83c0-10.8-4.71-20.45-11.41-27.69A29.61,29.61,0,0,0,56.64,43.69H20.15A9.33,9.33,0,0,0,10.83,53V161.69A9.32,9.32,0,0,0,20.15,171h54c7.25,0,16.84-4.68,21.25-10.44C110.08,141.32,108.11,121,97.68,107.59Z" transform="translate(-10.83 -43.69)" style="fill:#fff"/><path d="M136.51,43.69H104.79A9.32,9.32,0,0,0,95.47,53V72.29A37.56,37.56,0,0,1,97.05,83a39.15,39.15,0,0,1-1.58,11v6.11c.91.67,1.8,1.37,2.65,2.12a25.2,25.2,0,0,1,5,5.35c10.43,13.41,12.4,33.73-2.31,53a22.76,22.76,0,0,1-4.75,4.49,9.32,9.32,0,0,0,8.72,6h31.72a50.71,50.71,0,0,0,50.71-50.71v-26A50.71,50.71,0,0,0,136.51,43.69Z" transform="translate(-10.83 -43.69)" style="fill:#fff"/></g></svg>