<?xml version="1.0" encoding="UTF-8" standalone="no"?>
<svg width="599px" height="240px" viewBox="0 0 599 240" version="1.1" xmlns="http://www.w3.org/2000/svg" xmlns:xlink="http://www.w3.org/1999/xlink">
    <!-- Generator: Sketch 3.8.3 (29802) - http://www.bohemiancoding.com/sketch -->
    <title>Group</title>
    <desc>Created with Sketch.</desc>
    <defs></defs>
    <g id="Page-1" stroke="none" stroke-width="1" fill="none" fill-rule="evenodd">
        <g id="h1" fill="#FFFFFF">
            <g id="Layer_1">
                <g id="Group">
                    <path d="M238.707692,121.476923 C242.215385,178.707692 194.215385,239.261538 119.076923,239.630769 C53.1692308,240 0,186.646154 0.184615385,120.553846 C0.369230769,49.6615385 57.9692308,0.369230769 121.292308,0.923076923 C188.861538,1.84615385 242.769231,58.8923077 238.707692,121.476923 L238.707692,121.476923 Z M84.9230769,184.984615 L84.9230769,136.8 C88.4307692,136.061538 91.0153846,135.507692 93.7846154,134.953846 L93.7846154,102.276923 C90.6461538,101.723077 87.8769231,101.169231 84.3692308,100.430769 L84.3692308,55.9384615 L46.7076923,55.9384615 L46.7076923,184.984615 C59.2615385,184.984615 71.2615385,184.984615 84.9230769,184.984615 L84.9230769,184.984615 Z M139.2,56.1230769 L102.276923,56.1230769 L102.276923,185.169231 L139.2,185.169231 L139.2,56.1230769 L139.2,56.1230769 Z M193.846154,54.2769231 C182.953846,59.8153846 173.353846,64.9846154 163.384615,69.4153846 C158.030769,71.8153846 156.184615,75.1384615 156.184615,80.6769231 C156.184615,93.7846154 155.815385,107.076923 155.815385,120.184615 C155.815385,139.753846 155.630769,159.323077 156.184615,179.076923 C156.184615,181.476923 159.323077,185.538462 161.169231,185.723077 C171.692308,186.276923 182.4,186.092308 193.661538,186.092308 C193.846154,141.969231 193.846154,99.1384615 193.846154,54.2769231 L193.846154,54.2769231 Z" id="Shape"></path>
                    <path d="M373.292308,125.723077 C374.769231,125.169231 374.953846,124.984615 375.323077,124.984615 C399.692308,125.169231 399.692308,125.169231 405.969231,148.984615 C406.892308,152.492308 407.815385,155.815385 409.476923,161.538462 C412.615385,150.461538 415.384615,141.969231 417.230769,133.107692 C418.523077,127.2 420.923077,124.430769 427.569231,124.8 C449.723077,125.907692 444.369231,120.923077 448.430769,142.892308 C451.015385,156.738462 453.046154,170.769231 455.261538,184.615385 C455.815385,187.753846 456,191.076923 456.553846,194.953846 L432.738462,194.953846 C431.630769,183.692308 430.523077,172.430769 429.415385,161.169231 C428.861538,161.169231 428.307692,160.984615 427.753846,160.984615 C424.8,170.4 421.476923,179.815385 418.892308,189.415385 C417.415385,194.769231 414.276923,195.692308 409.476923,195.507692 C404.676923,195.507692 401.538462,194.769231 400.246154,189.230769 C397.846154,179.630769 394.523077,170.215385 390.276923,160.8 C388.984615,172.061538 387.876923,183.507692 386.584615,194.953846 L362.215385,194.953846 C365.907692,171.507692 369.6,148.8 373.292308,125.723077 L373.292308,125.723077 Z" id="Shape"></path>
                    <path d="M363.507692,75.8769231 C363.507692,54.2769231 380.307692,37.1076923 401.723077,36.9230769 C423.138462,36.9230769 440.492308,53.9076923 440.861538,75.1384615 C441.230769,96.7384615 424.430769,113.538462 402.461538,113.538462 C380.123077,113.907692 363.692308,97.6615385 363.507692,75.8769231 L363.507692,75.8769231 Z M413.907692,76.4307692 C414.092308,68.3076923 409.846154,62.7692308 403.015385,62.2153846 C395.446154,61.6615385 390.092308,67.2 389.907692,75.5076923 C389.723077,83.2615385 394.523077,88.9846154 401.538462,89.3538462 C408.738462,89.5384615 413.723077,84.3692308 413.907692,76.4307692 L413.907692,76.4307692 Z" id="Shape"></path>
                    <path d="M329.169231,86.9538462 L313.476923,86.9538462 L313.476923,111.692308 L288.738462,111.692308 L288.738462,39.5076923 L313.107692,39.5076923 L313.107692,63.5076923 L328.430769,63.5076923 L328.430769,38.9538462 C336.553846,38.9538462 343.753846,38.7692308 350.953846,39.1384615 C352.246154,39.1384615 354.461538,41.7230769 354.461538,43.2 C354.646154,65.9076923 354.646154,88.4307692 354.646154,111.692308 L329.169231,111.692308 L329.169231,86.9538462 L329.169231,86.9538462 Z" id="Shape"></path>
                    <path d="M497.353846,83.2615385 C503.446154,92.6769231 509.169231,101.723077 515.815385,112.430769 C505.846154,112.430769 496.430769,115.015385 489.969231,111.692308 C483.507692,108.553846 480,99.6923077 474.830769,92.6769231 L474.830769,111.692308 L449.538462,111.692308 L449.538462,38.4 C464.676923,39.3230769 480,39.3230769 494.953846,41.5384615 C504.553846,43.0153846 509.538462,51.1384615 510.646154,60.9230769 C511.569231,70.7076923 508.430769,76.4307692 497.353846,83.2615385 L497.353846,83.2615385 Z M477.6,56.8615385 C476.676923,57.7846154 475.753846,58.5230769 474.830769,59.4461538 L474.830769,70.8923077 C475.569231,71.6307692 476.307692,72.1846154 477.230769,72.9230769 C480,70.3384615 482.769231,67.7538462 485.538462,64.9846154 C482.953846,62.4 480.369231,59.6307692 477.6,56.8615385 L477.6,56.8615385 Z" id="Shape"></path>
                    <path d="M519.507692,113.353846 C521.723077,106.523077 523.015385,101.907692 524.676923,97.4769231 C530.769231,80.1230769 537.046154,62.9538462 542.953846,45.4153846 C544.615385,40.8 547.015385,38.7692308 552.184615,38.7692308 C573.969231,38.4 573.969231,38.2153846 581.169231,59.0769231 C586.338462,74.2153846 591.507692,89.1692308 596.676923,104.307692 C597.415385,106.523077 597.969231,108.738462 598.892308,112.246154 L575.261538,112.246154 C573.969231,112.246154 571.753846,111.323077 571.569231,110.4 C569.169231,98.9538462 560.123077,104.492308 553.661538,103.384615 C552.738462,103.2 550.707692,103.753846 550.523077,104.492308 C543.692308,120 530.769231,108.923077 519.507692,113.353846 L519.507692,113.353846 Z M560.307692,69.0461538 L558.461538,69.0461538 C557.169231,74.4 556.061538,79.7538462 554.584615,85.8461538 C558.461538,85.4769231 561.046154,85.2923077 564.184615,85.1076923 C562.707692,79.3846154 561.6,74.2153846 560.307692,69.0461538 L560.307692,69.0461538 Z" id="Shape"></path>
                    <path d="M328.061538,125.538462 L351.876923,125.538462 C351.876923,143.446154 353.169231,161.169231 351.507692,178.523077 C350.4,189.230769 340.246154,193.661538 330.092308,196.061538 C305.538462,201.784615 288.553846,188.492308 288.553846,163.569231 L288.553846,125.723077 L314.030769,125.723077 L314.030769,162.830769 C314.030769,168 313.661538,174.461538 321.230769,174.276923 C328.430769,174.092308 328.430769,168 328.430769,162.646154 C328.061538,150.461538 328.061538,138.276923 328.061538,125.538462 L328.061538,125.538462 Z" id="Shape"></path>
                </g>
            </g>
        </g>
    </g>
</svg>