<?xml version="1.0" encoding="utf-8"?>
<!-- Generator: Adobe Illustrator 22.1.0, SVG Export Plug-In . SVG Version: 6.00 Build 0)  -->
<svg version="1.1" id="Layer_1" xmlns="http://www.w3.org/2000/svg" xmlns:xlink="http://www.w3.org/1999/xlink" x="0px" y="0px"
	 viewBox="0 0 1280 720" style="enable-background:new 0 0 1280 720;" xml:space="preserve">
<style type="text/css">
	.st0{fill:#FFFFFF;}
</style>
<g>
	<g id="SOL">
		<path class="st0" d="M286.2,474.4c66,0.2,129.6,10.4,189.4,29.2c10.9-25,17-52.6,17.1-81.7c0.4-113.9-91.7-206.6-205.7-207
			C173,214.6,80.4,306.6,80,420.6c-0.1,29,5.9,56.7,16.6,81.8C156.5,484,220.2,474.1,286.2,474.4z"/>
	</g>
	<g>
		<path class="st0" d="M926.2,389.3h187.1c15.8,0,28.7,12.7,29,28.5c0.3,16.2-13.4,29.5-29.6,29.5H859.9c-3.9,0-7.2,3.2-7.2,7.2
			v43.5c0,3.9,3.2,7.2,7.2,7.2h252.2c47.8,0,87.4-38.1,87.9-85.9c0.5-48.2-38.6-87.6-86.8-87.6H925.1c-15.8,0-28.7-12.7-29-28.5
			c-0.3-16.2,13.4-29.5,29.6-29.5l252.7,0c3.9,0,7.2-3.2,7.2-7.2V223c0-3.9-3.2-7.2-7.2-7.2l-253.3,0c-48.1,0-87.2,39.4-86.8,87.6
			C838.8,351.2,878.4,389.3,926.2,389.3z"/>
	</g>
	<g>
		<g>
			<path class="st0" d="M520.9,302.3c0-7.3,2.4-13.8,7.3-19.6c5.8-5.8,12.8-8.7,21.1-8.7h238.4c4.8,0,7.3-2.4,7.3-7.3v-43.6
				c0-4.8-2.4-7.3-7.3-7.3H549.3h-0.7c-10.2,0-21.4,2.7-33.8,8c-12.4,5.3-21.9,11.9-28.7,19.6c-6.3,6.8-11.8,16-16.4,27.6
				c-4.2,10.6-6.5,20.5-6.8,29.5c24.4,35.5,37.5,77.4,37.3,121.4c-0.1,20.8-3.1,41.1-9,60.7c6.2,5.6,14.1,10.4,23.6,14.5
				c12.4,5.3,23.6,8,33.8,8h0.7h238.4c4.8,0,7.3-2.4,7.3-7.3v-42.9c0-4.8-1.9-7.3-7.3-7.3H549.3c-8.2,0-15.3-3.1-21.1-9.5
				c-4.8-5.3-7.3-11.9-7.3-19.6v-0.7v-21.1c0-4.4,2.2-6.8,6.5-7.3h201.3c4.8,0,7.3-2.4,7.3-7.3v-42.9c0-5.3-2.4-8-7.3-8H527.5
				c-4.4,0-6.5-2.2-6.5-6.5V303V302.3z"/>
		</g>
	</g>
</g>
</svg>
