<?xml version="1.0" encoding="UTF-8"?>
<svg width="382px" height="101px" viewBox="0 0 382 101" version="1.1" xmlns="http://www.w3.org/2000/svg" xmlns:xlink="http://www.w3.org/1999/xlink">
    <!-- Generator: Sketch 48.2 (47327) - http://www.bohemiancoding.com/sketch -->
    <title>BomDiaRJ</title>
    <desc>Created with Sketch.</desc>
    <defs></defs>
    <g id="Logo_Bom-DiaRJ" stroke="none" stroke-width="1" fill="none" fill-rule="evenodd">
        <g id="BomDiaRJ" fill="#FFFFFF" fill-rule="nonzero">
            <path d="M379.112791,0.554945055 L364.010465,0.554945055 C362.677907,0.554945055 361.456395,1.66483516 361.456395,3.10769231 L361.456395,70.810989 C361.456395,76.3604396 356.903488,80.910989 351.351163,80.910989 L302.379651,80.910989 C297.937791,80.910989 294.273256,77.2483516 294.273256,72.8087912 C294.273256,71.4769231 293.162791,70.256044 291.719186,70.256044 L276.61686,70.256044 C275.284302,70.256044 274.062791,71.3659341 274.062791,72.8087912 C274.062791,88.3472527 286.722093,101 302.268605,101 L351.240116,101 C367.897093,101 381.444767,87.4593407 381.444767,70.810989 L381.444767,3.10769231 C381.66686,1.66483516 380.445349,0.554945055 379.112791,0.554945055 Z" id="Shape"></path>
            <path d="M72.069186,91.010989 C94.9447674,91.010989 117.043023,94.4516484 137.808721,100.889011 C141.584302,92.2318681 143.694186,82.5758242 143.694186,72.4758242 C143.694186,32.9637363 111.601744,0.887912088 72.069186,0.887912088 C32.5366279,0.887912088 0.444186047,32.9637363 0.444186047,72.4758242 C0.444186047,82.5758242 2.55406977,92.1208791 6.32965116,100.889011 C27.0953488,94.5626374 49.1936047,91.010989 72.069186,91.010989 Z" id="Shape"></path>
            <g id="Group" transform="translate(133.255814, 0.000000)">
                <path d="M0.444186047,88.3472527 L0.444186047,98.4472527 C0.444186047,99.0021978 0.66627907,99.4461538 0.888372093,99.8901099 C2.10988372,100.223077 3.33139535,100.556044 4.44186047,101 L4.55290698,101 C8.32848837,92.3428571 10.4383721,82.6868132 10.4383721,72.6978022 C10.4383721,59.3791209 6.77383721,46.8373626 0.444186047,36.1824176 L0.444186047,56.2714286 L0.444186047,88.3472527 Z" id="Shape"></path>
                <path d="M122.706395,50.278022 C127.259302,45.0615385 130.035465,38.4021978 130.035465,30.9659341 C130.146512,14.2065934 116.598837,0.554945055 99.9418605,0.554945055 L2.8872093,0.554945055 C1.55465116,0.554945055 0.333139535,1.66483516 0.333139535,3.10769231 L0.333139535,30.8549451 C8.43953488,42.7307692 13.2145349,57.1593407 13.2145349,72.5868132 C13.2145349,82.3538462 11.3267442,91.8989011 7.55116279,100.889011 L17.8784884,100.889011 C19.2110465,100.889011 20.4325581,99.7791209 20.4325581,98.3362637 L20.4325581,60.710989 L20.4325581,23.0857143 C20.4325581,21.7538462 21.5430233,20.532967 22.9866279,20.532967 L99.9418605,20.532967 C105.38314,20.532967 109.936047,24.9725275 110.047093,30.410989 C110.15814,36.0714286 105.38314,40.621978 99.7197674,40.621978 L53.5244186,40.621978 C52.1918605,40.621978 50.9703488,41.7318681 50.9703488,43.1747253 L50.9703488,58.1582418 C50.9703488,59.4901099 52.080814,60.710989 53.5244186,60.710989 L99.4976744,60.710989 L100.60814,60.710989 C106.160465,60.710989 110.713372,65.2615385 110.713372,70.810989 L110.713372,98.3362637 C110.713372,99.6681319 111.823837,100.889011 113.267442,100.889011 L128.369767,100.889011 C129.702326,100.889011 130.923837,99.7791209 130.923837,98.3362637 L130.923837,70.810989 C130.923837,62.9307692 127.814535,55.7164835 122.706395,50.278022 Z" id="Shape"></path>
            </g>
        </g>
    </g>
</svg>